<svg width="80" height="80" viewBox="0 0 80 80" fill="none" xmlns="http://www.w3.org/2000/svg">
<path d="M24.8241 80C19.4924 68.9057 22.3317 62.5485 26.4296 56.5592C30.9171 50 32.0736 43.5072 32.0736 43.5072C32.0736 43.5072 35.6013 48.0932 34.1901 55.2657C40.4223 48.3282 41.5985 37.275 40.6574 33.0419C54.7445 42.8864 60.765 64.2024 52.6514 80C95.8057 55.5836 63.3857 19.0491 57.7415 14.9337C59.6229 19.049 59.9798 26.0157 56.1791 29.3967C49.7453 4.99995 33.8375 0 33.8375 0C35.7189 12.5816 27.0176 26.3394 18.6269 36.6195C18.3321 31.6026 18.0189 28.1408 15.3807 23.3399C14.7885 32.4536 7.82355 39.8826 5.93745 49.014C3.38264 61.38 7.85115 70.4343 24.8241 80Z" fill="white"/>
</svg>
